<?xml version="1.0" standalone="no"?>
<!DOCTYPE svg PUBLIC "-//W3C//DTD SVG 20010904//EN"
 "http://www.w3.org/TR/2001/REC-SVG-20010904/DTD/svg10.dtd">
<svg version="1.0" xmlns="http://www.w3.org/2000/svg"
 width="260.000000pt" height="260.000000pt" viewBox="0 0 260.000000 260.000000"
 preserveAspectRatio="xMidYMid meet">
<metadata>
Created by potrace 1.11, written by Peter Selinger 2001-2013
</metadata>
<g transform="translate(0.000000,260.000000) scale(0.100000,-0.100000)"
fill="#000000" stroke="none">
<path d="M319 2565 c-91 -18 -191 -38 -223 -45 l-56 -11 0 -1230 0 -1229 230
0 230 0 0 105 c0 58 1 105 3 105 1 0 32 -28 68 -62 117 -114 243 -170 424
-190 273 -31 510 55 710 257 108 109 174 214 221 353 45 130 58 235 51 402
-11 260 -89 446 -262 629 -116 122 -251 205 -405 247 -82 23 -336 26 -420 6
-106 -27 -235 -97 -315 -174 l-75 -71 0 472 c0 259 -3 471 -7 470 -5 -1 -83
-16 -174 -34z m851 -1115 c156 -46 282 -176 325 -336 19 -69 22 -218 6 -288
-40 -171 -183 -315 -356 -361 -85 -22 -208 -19 -291 6 -83 25 -123 49 -188
109 -108 100 -156 216 -156 377 0 167 40 272 142 375 131 131 321 175 518 118z"/>
<path d="M2171 558 c-122 -47 -188 -155 -179 -293 8 -119 71 -202 186 -245
136 -51 285 9 351 142 118 235 -113 490 -358 396z"/>
</g>
</svg>
